<mxfile host="app.diagrams.net" agent="Mozilla/5.0 (Windows NT 10.0; Win64; x64) AppleWebKit/537.36 (KHTML, like Gecko) Chrome/130.0.0.0 Safari/537.36" version="24.8.0">
  <diagram name="Page-1" id="ZgJk2FmDBryChwOd-72f">
    <mxGraphModel dx="857" dy="2014" grid="1" gridSize="10" guides="1" tooltips="1" connect="1" arrows="1" fold="1" page="1" pageScale="1" pageWidth="850" pageHeight="1100" math="0" shadow="0">
      <root>
        <mxCell id="0" />
        <mxCell id="1" parent="0" />
        <mxCell id="Qkc_8YQNWvHsXQ4IZDVN-4" value="START" style="strokeWidth=2;html=1;shape=mxgraph.flowchart.start_1;whiteSpace=wrap;" vertex="1" parent="1">
          <mxGeometry x="375" width="100" height="60" as="geometry" />
        </mxCell>
        <mxCell id="Qkc_8YQNWvHsXQ4IZDVN-6" value="" style="endArrow=classic;html=1;rounded=0;" edge="1" parent="1">
          <mxGeometry width="50" height="50" relative="1" as="geometry">
            <mxPoint x="425" y="60" as="sourcePoint" />
            <mxPoint x="425" y="110" as="targetPoint" />
            <Array as="points">
              <mxPoint x="425" y="60" />
            </Array>
          </mxGeometry>
        </mxCell>
        <mxCell id="Qkc_8YQNWvHsXQ4IZDVN-7" value="import time&amp;nbsp;&lt;div&gt;import get_state from matplotib.pylab&lt;/div&gt;" style="rounded=1;whiteSpace=wrap;html=1;absoluteArcSize=1;arcSize=14;strokeWidth=2;" vertex="1" parent="1">
          <mxGeometry x="335" y="90" width="180" height="80" as="geometry" />
        </mxCell>
        <mxCell id="Qkc_8YQNWvHsXQ4IZDVN-8" value="" style="endArrow=classic;html=1;rounded=0;exitX=0.5;exitY=1;exitDx=0;exitDy=0;entryX=0.5;entryY=0;entryDx=0;entryDy=0;" edge="1" parent="1" source="Qkc_8YQNWvHsXQ4IZDVN-7" target="Qkc_8YQNWvHsXQ4IZDVN-13">
          <mxGeometry width="50" height="50" relative="1" as="geometry">
            <mxPoint x="430" y="570" as="sourcePoint" />
            <mxPoint x="430" y="250" as="targetPoint" />
          </mxGeometry>
        </mxCell>
        <mxCell id="Qkc_8YQNWvHsXQ4IZDVN-16" value="" style="edgeStyle=orthogonalEdgeStyle;rounded=0;orthogonalLoop=1;jettySize=auto;html=1;" edge="1" parent="1" source="Qkc_8YQNWvHsXQ4IZDVN-13" target="Qkc_8YQNWvHsXQ4IZDVN-15">
          <mxGeometry relative="1" as="geometry" />
        </mxCell>
        <mxCell id="Qkc_8YQNWvHsXQ4IZDVN-13" value="create class TrafficLight" style="rounded=1;whiteSpace=wrap;html=1;absoluteArcSize=1;arcSize=14;strokeWidth=2;" vertex="1" parent="1">
          <mxGeometry x="335" y="220" width="180" height="80" as="geometry" />
        </mxCell>
        <mxCell id="Qkc_8YQNWvHsXQ4IZDVN-25" value="" style="edgeStyle=orthogonalEdgeStyle;rounded=0;orthogonalLoop=1;jettySize=auto;html=1;" edge="1" parent="1" source="Qkc_8YQNWvHsXQ4IZDVN-15" target="Qkc_8YQNWvHsXQ4IZDVN-18">
          <mxGeometry relative="1" as="geometry" />
        </mxCell>
        <mxCell id="Qkc_8YQNWvHsXQ4IZDVN-15" value="define the self.state and seld.pedestrians_wating" style="rounded=1;whiteSpace=wrap;html=1;absoluteArcSize=1;arcSize=14;strokeWidth=2;" vertex="1" parent="1">
          <mxGeometry x="335" y="340" width="180" height="80" as="geometry" />
        </mxCell>
        <mxCell id="Qkc_8YQNWvHsXQ4IZDVN-18" value="define the changes of the traffic system" style="rounded=1;whiteSpace=wrap;html=1;absoluteArcSize=1;arcSize=14;strokeWidth=2;" vertex="1" parent="1">
          <mxGeometry x="335" y="460" width="180" height="80" as="geometry" />
        </mxCell>
        <mxCell id="Qkc_8YQNWvHsXQ4IZDVN-31" value="" style="edgeStyle=orthogonalEdgeStyle;rounded=0;orthogonalLoop=1;jettySize=auto;html=1;" edge="1" parent="1" source="Qkc_8YQNWvHsXQ4IZDVN-26" target="Qkc_8YQNWvHsXQ4IZDVN-28">
          <mxGeometry relative="1" as="geometry" />
        </mxCell>
        <mxCell id="Qkc_8YQNWvHsXQ4IZDVN-37" value="" style="edgeStyle=orthogonalEdgeStyle;rounded=0;orthogonalLoop=1;jettySize=auto;html=1;" edge="1" parent="1" source="Qkc_8YQNWvHsXQ4IZDVN-26" target="Qkc_8YQNWvHsXQ4IZDVN-36">
          <mxGeometry relative="1" as="geometry" />
        </mxCell>
        <mxCell id="Qkc_8YQNWvHsXQ4IZDVN-45" value="" style="edgeStyle=orthogonalEdgeStyle;rounded=0;orthogonalLoop=1;jettySize=auto;html=1;" edge="1" parent="1" source="Qkc_8YQNWvHsXQ4IZDVN-26" target="Qkc_8YQNWvHsXQ4IZDVN-44">
          <mxGeometry relative="1" as="geometry" />
        </mxCell>
        <mxCell id="Qkc_8YQNWvHsXQ4IZDVN-26" value="red light&amp;nbsp;&lt;div&gt;if light is red&lt;/div&gt;" style="strokeWidth=2;html=1;shape=mxgraph.flowchart.decision;whiteSpace=wrap;" vertex="1" parent="1">
          <mxGeometry x="365" y="590" width="120" height="120" as="geometry" />
        </mxCell>
        <mxCell id="Qkc_8YQNWvHsXQ4IZDVN-32" value="" style="edgeStyle=orthogonalEdgeStyle;rounded=0;orthogonalLoop=1;jettySize=auto;html=1;" edge="1" parent="1" source="Qkc_8YQNWvHsXQ4IZDVN-28" target="Qkc_8YQNWvHsXQ4IZDVN-29">
          <mxGeometry relative="1" as="geometry" />
        </mxCell>
        <mxCell id="Qkc_8YQNWvHsXQ4IZDVN-28" value="&lt;div&gt;green light&lt;/div&gt;if light is green" style="strokeWidth=2;html=1;shape=mxgraph.flowchart.decision;whiteSpace=wrap;" vertex="1" parent="1">
          <mxGeometry x="70" y="540" width="120" height="120" as="geometry" />
        </mxCell>
        <mxCell id="Qkc_8YQNWvHsXQ4IZDVN-29" value="amber light&lt;div&gt;if light is amber&lt;/div&gt;" style="strokeWidth=2;html=1;shape=mxgraph.flowchart.decision;whiteSpace=wrap;" vertex="1" parent="1">
          <mxGeometry x="60" y="730" width="120" height="120" as="geometry" />
        </mxCell>
        <mxCell id="Qkc_8YQNWvHsXQ4IZDVN-30" value="" style="strokeWidth=2;html=1;shape=mxgraph.flowchart.decision;whiteSpace=wrap;" vertex="1" parent="1">
          <mxGeometry x="690" y="370" width="120" height="110" as="geometry" />
        </mxCell>
        <mxCell id="Qkc_8YQNWvHsXQ4IZDVN-34" value="" style="endArrow=classic;html=1;rounded=0;entryX=0.256;entryY=0.747;entryDx=0;entryDy=0;entryPerimeter=0;exitX=0.767;exitY=0.253;exitDx=0;exitDy=0;exitPerimeter=0;" edge="1" parent="1" source="Qkc_8YQNWvHsXQ4IZDVN-29" target="Qkc_8YQNWvHsXQ4IZDVN-26">
          <mxGeometry width="50" height="50" relative="1" as="geometry">
            <mxPoint x="170" y="790" as="sourcePoint" />
            <mxPoint x="220" y="740" as="targetPoint" />
          </mxGeometry>
        </mxCell>
        <mxCell id="Qkc_8YQNWvHsXQ4IZDVN-35" style="edgeStyle=orthogonalEdgeStyle;rounded=0;orthogonalLoop=1;jettySize=auto;html=1;entryX=0.5;entryY=0;entryDx=0;entryDy=0;entryPerimeter=0;" edge="1" parent="1" source="Qkc_8YQNWvHsXQ4IZDVN-18" target="Qkc_8YQNWvHsXQ4IZDVN-26">
          <mxGeometry relative="1" as="geometry" />
        </mxCell>
        <mxCell id="Qkc_8YQNWvHsXQ4IZDVN-36" value="if pedestrian is waiting to cross" style="strokeWidth=2;html=1;shape=mxgraph.flowchart.decision;whiteSpace=wrap;" vertex="1" parent="1">
          <mxGeometry x="610" y="590" width="120" height="120" as="geometry" />
        </mxCell>
        <mxCell id="Qkc_8YQNWvHsXQ4IZDVN-50" value="" style="edgeStyle=orthogonalEdgeStyle;rounded=0;orthogonalLoop=1;jettySize=auto;html=1;" edge="1" parent="1" source="Qkc_8YQNWvHsXQ4IZDVN-44" target="Qkc_8YQNWvHsXQ4IZDVN-49">
          <mxGeometry relative="1" as="geometry" />
        </mxCell>
        <mxCell id="Qkc_8YQNWvHsXQ4IZDVN-44" value="define request crossiong" style="rounded=1;whiteSpace=wrap;html=1;absoluteArcSize=1;arcSize=14;strokeWidth=2;" vertex="1" parent="1">
          <mxGeometry x="333" y="770" width="185" height="80" as="geometry" />
        </mxCell>
        <mxCell id="Qkc_8YQNWvHsXQ4IZDVN-48" value="" style="endArrow=classic;html=1;rounded=0;" edge="1" parent="1">
          <mxGeometry width="50" height="50" relative="1" as="geometry">
            <mxPoint x="640" y="680" as="sourcePoint" />
            <mxPoint x="520" y="810" as="targetPoint" />
          </mxGeometry>
        </mxCell>
        <mxCell id="Qkc_8YQNWvHsXQ4IZDVN-52" value="" style="edgeStyle=orthogonalEdgeStyle;rounded=0;orthogonalLoop=1;jettySize=auto;html=1;" edge="1" parent="1" source="Qkc_8YQNWvHsXQ4IZDVN-49" target="Qkc_8YQNWvHsXQ4IZDVN-51">
          <mxGeometry relative="1" as="geometry" />
        </mxCell>
        <mxCell id="Qkc_8YQNWvHsXQ4IZDVN-49" value="get_state of traffic lights and return it" style="rounded=1;whiteSpace=wrap;html=1;absoluteArcSize=1;arcSize=14;strokeWidth=2;" vertex="1" parent="1">
          <mxGeometry x="333" y="920" width="185" height="70" as="geometry" />
        </mxCell>
        <mxCell id="Qkc_8YQNWvHsXQ4IZDVN-54" value="" style="edgeStyle=orthogonalEdgeStyle;rounded=0;orthogonalLoop=1;jettySize=auto;html=1;" edge="1" parent="1" source="Qkc_8YQNWvHsXQ4IZDVN-51" target="Qkc_8YQNWvHsXQ4IZDVN-53">
          <mxGeometry relative="1" as="geometry" />
        </mxCell>
        <mxCell id="Qkc_8YQNWvHsXQ4IZDVN-51" value="define if pedestrian is waiting" style="whiteSpace=wrap;html=1;rounded=1;arcSize=14;strokeWidth=2;" vertex="1" parent="1">
          <mxGeometry x="330" y="1075" width="190" height="75" as="geometry" />
        </mxCell>
        <mxCell id="Qkc_8YQNWvHsXQ4IZDVN-56" value="" style="edgeStyle=orthogonalEdgeStyle;rounded=0;orthogonalLoop=1;jettySize=auto;html=1;" edge="1" parent="1" source="Qkc_8YQNWvHsXQ4IZDVN-53" target="Qkc_8YQNWvHsXQ4IZDVN-55">
          <mxGeometry relative="1" as="geometry" />
        </mxCell>
        <mxCell id="Qkc_8YQNWvHsXQ4IZDVN-53" value="define the traffic system&lt;div&gt;light = TrafficLight&lt;/div&gt;" style="whiteSpace=wrap;html=1;rounded=1;arcSize=14;strokeWidth=2;" vertex="1" parent="1">
          <mxGeometry x="330" y="1220" width="190" height="80" as="geometry" />
        </mxCell>
        <mxCell id="Qkc_8YQNWvHsXQ4IZDVN-58" value="" style="edgeStyle=orthogonalEdgeStyle;rounded=0;orthogonalLoop=1;jettySize=auto;html=1;" edge="1" parent="1" source="Qkc_8YQNWvHsXQ4IZDVN-55" target="Qkc_8YQNWvHsXQ4IZDVN-57">
          <mxGeometry relative="1" as="geometry" />
        </mxCell>
        <mxCell id="Qkc_8YQNWvHsXQ4IZDVN-76" value="" style="edgeStyle=orthogonalEdgeStyle;rounded=0;orthogonalLoop=1;jettySize=auto;html=1;" edge="1" parent="1" source="Qkc_8YQNWvHsXQ4IZDVN-55" target="Qkc_8YQNWvHsXQ4IZDVN-60">
          <mxGeometry relative="1" as="geometry" />
        </mxCell>
        <mxCell id="Qkc_8YQNWvHsXQ4IZDVN-55" value="while condition" style="rhombus;whiteSpace=wrap;html=1;rounded=1;arcSize=14;strokeWidth=2;" vertex="1" parent="1">
          <mxGeometry x="373" y="1360" width="105" height="100" as="geometry" />
        </mxCell>
        <mxCell id="Qkc_8YQNWvHsXQ4IZDVN-57" value="print {light.get_state()}" style="whiteSpace=wrap;html=1;rounded=1;arcSize=14;strokeWidth=2;" vertex="1" parent="1">
          <mxGeometry x="550.5" y="1380" width="159.5" height="60" as="geometry" />
        </mxCell>
        <mxCell id="Qkc_8YQNWvHsXQ4IZDVN-59" value="true" style="text;html=1;align=center;verticalAlign=middle;resizable=0;points=[];autosize=1;strokeColor=none;fillColor=none;" vertex="1" parent="1">
          <mxGeometry x="485" y="1390" width="40" height="30" as="geometry" />
        </mxCell>
        <mxCell id="Qkc_8YQNWvHsXQ4IZDVN-63" value="" style="edgeStyle=orthogonalEdgeStyle;rounded=0;orthogonalLoop=1;jettySize=auto;html=1;" edge="1" parent="1" source="Qkc_8YQNWvHsXQ4IZDVN-60" target="Qkc_8YQNWvHsXQ4IZDVN-62">
          <mxGeometry relative="1" as="geometry" />
        </mxCell>
        <mxCell id="Qkc_8YQNWvHsXQ4IZDVN-71" value="" style="edgeStyle=orthogonalEdgeStyle;rounded=0;orthogonalLoop=1;jettySize=auto;html=1;exitX=0.5;exitY=1;exitDx=0;exitDy=0;" edge="1" parent="1" source="Qkc_8YQNWvHsXQ4IZDVN-60" target="Qkc_8YQNWvHsXQ4IZDVN-70">
          <mxGeometry relative="1" as="geometry">
            <mxPoint x="270" y="1470" as="sourcePoint" />
          </mxGeometry>
        </mxCell>
        <mxCell id="Qkc_8YQNWvHsXQ4IZDVN-60" value="if light is red" style="rhombus;whiteSpace=wrap;html=1;rounded=1;arcSize=14;strokeWidth=2;" vertex="1" parent="1">
          <mxGeometry x="373" y="1500" width="105" height="100" as="geometry" />
        </mxCell>
        <mxCell id="Qkc_8YQNWvHsXQ4IZDVN-65" value="" style="edgeStyle=orthogonalEdgeStyle;rounded=0;orthogonalLoop=1;jettySize=auto;html=1;" edge="1" parent="1" source="Qkc_8YQNWvHsXQ4IZDVN-62" target="Qkc_8YQNWvHsXQ4IZDVN-64">
          <mxGeometry relative="1" as="geometry" />
        </mxCell>
        <mxCell id="Qkc_8YQNWvHsXQ4IZDVN-62" value="if pedestrian waiting" style="rhombus;whiteSpace=wrap;html=1;rounded=1;arcSize=14;strokeWidth=2;" vertex="1" parent="1">
          <mxGeometry x="120" y="1500" width="105" height="100" as="geometry" />
        </mxCell>
        <mxCell id="Qkc_8YQNWvHsXQ4IZDVN-67" value="" style="edgeStyle=orthogonalEdgeStyle;rounded=0;orthogonalLoop=1;jettySize=auto;html=1;" edge="1" parent="1" source="Qkc_8YQNWvHsXQ4IZDVN-64" target="Qkc_8YQNWvHsXQ4IZDVN-66">
          <mxGeometry relative="1" as="geometry" />
        </mxCell>
        <mxCell id="Qkc_8YQNWvHsXQ4IZDVN-64" value="print(&quot;pedestrian crossinng&#39;&#39;)" style="whiteSpace=wrap;html=1;rounded=1;arcSize=14;strokeWidth=2;" vertex="1" parent="1">
          <mxGeometry x="112.5" y="1650" width="120" height="60" as="geometry" />
        </mxCell>
        <mxCell id="Qkc_8YQNWvHsXQ4IZDVN-69" value="" style="edgeStyle=orthogonalEdgeStyle;rounded=0;orthogonalLoop=1;jettySize=auto;html=1;" edge="1" parent="1" source="Qkc_8YQNWvHsXQ4IZDVN-66" target="Qkc_8YQNWvHsXQ4IZDVN-68">
          <mxGeometry relative="1" as="geometry" />
        </mxCell>
        <mxCell id="Qkc_8YQNWvHsXQ4IZDVN-66" value="time.sleep(2)" style="whiteSpace=wrap;html=1;rounded=1;arcSize=14;strokeWidth=2;" vertex="1" parent="1">
          <mxGeometry x="112.5" y="1750" width="120" height="60" as="geometry" />
        </mxCell>
        <mxCell id="Qkc_8YQNWvHsXQ4IZDVN-68" value="else print(&quot;no pedestrians&quot;)" style="rhombus;whiteSpace=wrap;html=1;rounded=1;arcSize=14;strokeWidth=2;" vertex="1" parent="1">
          <mxGeometry x="117.5" y="1870" width="110" height="110" as="geometry" />
        </mxCell>
        <mxCell id="Qkc_8YQNWvHsXQ4IZDVN-75" value="" style="edgeStyle=orthogonalEdgeStyle;rounded=0;orthogonalLoop=1;jettySize=auto;html=1;" edge="1" parent="1" source="Qkc_8YQNWvHsXQ4IZDVN-70" target="Qkc_8YQNWvHsXQ4IZDVN-74">
          <mxGeometry relative="1" as="geometry" />
        </mxCell>
        <mxCell id="Qkc_8YQNWvHsXQ4IZDVN-70" value="time.sleep(3)" style="whiteSpace=wrap;html=1;rounded=1;arcSize=14;strokeWidth=2;" vertex="1" parent="1">
          <mxGeometry x="365.5" y="1710" width="120" height="60" as="geometry" />
        </mxCell>
        <mxCell id="Qkc_8YQNWvHsXQ4IZDVN-85" value="" style="edgeStyle=orthogonalEdgeStyle;rounded=0;orthogonalLoop=1;jettySize=auto;html=1;" edge="1" parent="1" source="Qkc_8YQNWvHsXQ4IZDVN-74" target="Qkc_8YQNWvHsXQ4IZDVN-84">
          <mxGeometry relative="1" as="geometry" />
        </mxCell>
        <mxCell id="Qkc_8YQNWvHsXQ4IZDVN-89" value="" style="edgeStyle=orthogonalEdgeStyle;rounded=0;orthogonalLoop=1;jettySize=auto;html=1;" edge="1" parent="1" source="Qkc_8YQNWvHsXQ4IZDVN-74" target="Qkc_8YQNWvHsXQ4IZDVN-90">
          <mxGeometry relative="1" as="geometry">
            <mxPoint x="425.5" y="2080.0000000000005" as="targetPoint" />
          </mxGeometry>
        </mxCell>
        <mxCell id="Qkc_8YQNWvHsXQ4IZDVN-74" value="light.change_state()" style="whiteSpace=wrap;html=1;rounded=1;arcSize=14;strokeWidth=2;" vertex="1" parent="1">
          <mxGeometry x="365.5" y="1890" width="120" height="60" as="geometry" />
        </mxCell>
        <mxCell id="Qkc_8YQNWvHsXQ4IZDVN-83" value="" style="curved=1;endArrow=classic;html=1;rounded=0;exitX=0.5;exitY=1;exitDx=0;exitDy=0;" edge="1" parent="1">
          <mxGeometry width="50" height="50" relative="1" as="geometry">
            <mxPoint x="172.50000000000023" y="1970.0000000000005" as="sourcePoint" />
            <mxPoint x="380" y="1400" as="targetPoint" />
            <Array as="points">
              <mxPoint x="200" y="2120" />
              <mxPoint y="1860" />
              <mxPoint x="70" y="1460" />
              <mxPoint x="120" y="1400" />
              <mxPoint x="200" y="1390" />
              <mxPoint x="330" y="1400" />
            </Array>
          </mxGeometry>
        </mxCell>
        <mxCell id="Qkc_8YQNWvHsXQ4IZDVN-87" value="" style="edgeStyle=orthogonalEdgeStyle;rounded=0;orthogonalLoop=1;jettySize=auto;html=1;" edge="1" parent="1" source="Qkc_8YQNWvHsXQ4IZDVN-84" target="Qkc_8YQNWvHsXQ4IZDVN-86">
          <mxGeometry relative="1" as="geometry" />
        </mxCell>
        <mxCell id="Qkc_8YQNWvHsXQ4IZDVN-84" value="if light red" style="rhombus;whiteSpace=wrap;html=1;rounded=1;arcSize=14;strokeWidth=2;" vertex="1" parent="1">
          <mxGeometry x="670" y="1820" width="94.5" height="80" as="geometry" />
        </mxCell>
        <mxCell id="Qkc_8YQNWvHsXQ4IZDVN-86" value="light.request_crossing()" style="whiteSpace=wrap;html=1;rounded=1;arcSize=14;strokeWidth=2;" vertex="1" parent="1">
          <mxGeometry x="645.87" y="1960" width="142.75" height="70" as="geometry" />
        </mxCell>
        <mxCell id="Qkc_8YQNWvHsXQ4IZDVN-93" value="" style="edgeStyle=orthogonalEdgeStyle;rounded=0;orthogonalLoop=1;jettySize=auto;html=1;entryX=0.5;entryY=0;entryDx=0;entryDy=0;" edge="1" parent="1" source="Qkc_8YQNWvHsXQ4IZDVN-90" target="Qkc_8YQNWvHsXQ4IZDVN-100">
          <mxGeometry relative="1" as="geometry">
            <mxPoint x="454" y="2290" as="targetPoint" />
          </mxGeometry>
        </mxCell>
        <mxCell id="Qkc_8YQNWvHsXQ4IZDVN-95" value="" style="edgeStyle=orthogonalEdgeStyle;rounded=0;orthogonalLoop=1;jettySize=auto;html=1;entryX=0.46;entryY=-0.01;entryDx=0;entryDy=0;entryPerimeter=0;" edge="1" parent="1" source="Qkc_8YQNWvHsXQ4IZDVN-90" target="Qkc_8YQNWvHsXQ4IZDVN-96">
          <mxGeometry relative="1" as="geometry">
            <mxPoint x="172.50000000000023" y="2260" as="targetPoint" />
          </mxGeometry>
        </mxCell>
        <mxCell id="Qkc_8YQNWvHsXQ4IZDVN-90" value="if __name__ == &quot;__main__&quot;" style="strokeWidth=2;html=1;shape=mxgraph.flowchart.decision;whiteSpace=wrap;" vertex="1" parent="1">
          <mxGeometry x="335.5" y="2080" width="180" height="120" as="geometry" />
        </mxCell>
        <mxCell id="Qkc_8YQNWvHsXQ4IZDVN-91" value="" style="endArrow=classic;html=1;rounded=0;entryX=0.813;entryY=0.295;entryDx=0;entryDy=0;entryPerimeter=0;exitX=0.011;exitY=0.665;exitDx=0;exitDy=0;exitPerimeter=0;" edge="1" parent="1" source="Qkc_8YQNWvHsXQ4IZDVN-86" target="Qkc_8YQNWvHsXQ4IZDVN-90">
          <mxGeometry width="50" height="50" relative="1" as="geometry">
            <mxPoint x="540" y="2080" as="sourcePoint" />
            <mxPoint x="590" y="2030" as="targetPoint" />
          </mxGeometry>
        </mxCell>
        <mxCell id="Qkc_8YQNWvHsXQ4IZDVN-98" value="" style="edgeStyle=orthogonalEdgeStyle;rounded=0;orthogonalLoop=1;jettySize=auto;html=1;" edge="1" parent="1" source="Qkc_8YQNWvHsXQ4IZDVN-96" target="Qkc_8YQNWvHsXQ4IZDVN-97">
          <mxGeometry relative="1" as="geometry" />
        </mxCell>
        <mxCell id="Qkc_8YQNWvHsXQ4IZDVN-96" value="except KeyboardIntrerrupt:" style="rounded=1;whiteSpace=wrap;html=1;absoluteArcSize=1;arcSize=14;strokeWidth=2;" vertex="1" parent="1">
          <mxGeometry x="100" y="2260" width="160" height="70" as="geometry" />
        </mxCell>
        <mxCell id="Qkc_8YQNWvHsXQ4IZDVN-97" value="print(&quot;Traffic system stopped&quot;)" style="whiteSpace=wrap;html=1;rounded=1;arcSize=14;strokeWidth=2;" vertex="1" parent="1">
          <mxGeometry x="120" y="2415" width="120" height="60" as="geometry" />
        </mxCell>
        <mxCell id="Qkc_8YQNWvHsXQ4IZDVN-100" value="&#xa;&lt;span style=&quot;color: rgb(0, 0, 0); font-family: Helvetica; font-size: 12px; font-style: normal; font-variant-ligatures: normal; font-variant-caps: normal; font-weight: 400; letter-spacing: normal; orphans: 2; text-align: center; text-indent: 0px; text-transform: none; widows: 2; word-spacing: 0px; -webkit-text-stroke-width: 0px; white-space: normal; background-color: rgb(251, 251, 251); text-decoration-thickness: initial; text-decoration-style: initial; text-decoration-color: initial; display: inline !important; float: none;&quot;&gt;try:&lt;/span&gt;&lt;div style=&quot;forced-color-adjust: none; color: rgb(0, 0, 0); font-family: Helvetica; font-size: 12px; font-style: normal; font-variant-ligatures: normal; font-variant-caps: normal; font-weight: 400; letter-spacing: normal; orphans: 2; text-align: center; text-indent: 0px; text-transform: none; widows: 2; word-spacing: 0px; -webkit-text-stroke-width: 0px; white-space: normal; background-color: rgb(251, 251, 251); text-decoration-thickness: initial; text-decoration-style: initial; text-decoration-color: initial;&quot;&gt;run_traffic_system&lt;/div&gt;&#xa;&#xa;" style="rounded=1;whiteSpace=wrap;html=1;absoluteArcSize=1;arcSize=14;strokeWidth=2;" vertex="1" parent="1">
          <mxGeometry x="358.5" y="2310" width="134" height="70" as="geometry" />
        </mxCell>
        <mxCell id="Qkc_8YQNWvHsXQ4IZDVN-101" value="END" style="strokeWidth=2;html=1;shape=mxgraph.flowchart.terminator;whiteSpace=wrap;" vertex="1" parent="1">
          <mxGeometry x="375.5" y="2560" width="100" height="60" as="geometry" />
        </mxCell>
        <mxCell id="Qkc_8YQNWvHsXQ4IZDVN-102" value="" style="endArrow=classic;html=1;rounded=0;exitX=0.5;exitY=1;exitDx=0;exitDy=0;entryX=0.042;entryY=0.183;entryDx=0;entryDy=0;entryPerimeter=0;" edge="1" parent="1" source="Qkc_8YQNWvHsXQ4IZDVN-97" target="Qkc_8YQNWvHsXQ4IZDVN-101">
          <mxGeometry width="50" height="50" relative="1" as="geometry">
            <mxPoint x="420" y="2520" as="sourcePoint" />
            <mxPoint x="470" y="2470" as="targetPoint" />
          </mxGeometry>
        </mxCell>
        <mxCell id="Qkc_8YQNWvHsXQ4IZDVN-103" value="" style="endArrow=classic;html=1;rounded=0;exitX=0.5;exitY=1;exitDx=0;exitDy=0;entryX=0.5;entryY=0;entryDx=0;entryDy=0;entryPerimeter=0;" edge="1" parent="1" source="Qkc_8YQNWvHsXQ4IZDVN-100" target="Qkc_8YQNWvHsXQ4IZDVN-101">
          <mxGeometry width="50" height="50" relative="1" as="geometry">
            <mxPoint x="420" y="2520" as="sourcePoint" />
            <mxPoint x="470" y="2470" as="targetPoint" />
          </mxGeometry>
        </mxCell>
      </root>
    </mxGraphModel>
  </diagram>
</mxfile>
